<?xml version="1.0" encoding="UTF-8"?>
<!-- Generator: Adobe Illustrator 24.3.0, SVG Export Plug-In . SVG Version: 6.00 Build 0)  -->
<svg xmlns="http://www.w3.org/2000/svg" xmlns:xlink="http://www.w3.org/1999/xlink" version="1.1" id="Capa_1" x="0px" y="0px" viewBox="0 0 561.754 561.754" style="enable-background:new 0 0 561.754 561.754;" xml:space="preserve" width="512" height="512">
<g>
	<g>
		<path style="fill-rule:evenodd;clip-rule:evenodd;" d="M477.477,337.068c0-43.266-33.301-107.058-89.928-181.536    c-35.346-46.489-75.255-91.383-106.921-123.75c-31.426,32.172-71.404,77.253-106.656,123.736    c-56.478,74.473-89.696,138.272-89.696,181.55c0,48.925,17.9,95.017,49.771,130.745c5.163,5.786,4.657,14.664-1.131,19.826    c-5.787,5.162-14.664,4.657-19.827-1.129c-36.421-40.828-56.898-93.556-56.898-149.441c0-51.442,35.347-119.329,95.403-198.52    c38.433-50.678,82.175-99.522,115.252-132.794c7.675-7.675,19.88-7.675,27.579,0.024c33.359,33.523,76.977,82.112,115.48,132.756    c60.219,79.202,95.657,147.084,95.657,198.534c0,124.086-100.6,224.686-224.686,224.686c-42.649,0-83.576-11.903-118.896-34.017    c-6.574-4.115-8.566-12.782-4.451-19.354c4.116-6.575,12.781-8.566,19.355-4.452c30.88,19.334,66.647,29.737,103.992,29.737    C389.453,533.668,477.477,445.644,477.477,337.068z M140.437,342.325c0,77.542,62.888,140.429,140.429,140.429    c7.756,0,14.043,6.288,14.043,14.043c0,7.754-6.287,14.043-14.043,14.043c-93.052,0-168.514-75.464-168.514-168.514    c0-7.754,6.287-14.043,14.043-14.043C134.15,328.283,140.437,334.571,140.437,342.325z"/>
	</g>
</g>















</svg>
