<?xml version="1.0" encoding="UTF-8"?>
<svg id="Layer_2" data-name="Layer 2" xmlns="http://www.w3.org/2000/svg" viewBox="0 0 209.19 90.92">
  <defs>
    <style>
      .cls-1 {
        fill: #0d0d0d;
        stroke-width: 0px;
      }
    </style>
  </defs>
  <g id="Layer_1-2" data-name="Layer 1">
    <g>
      <path class="cls-1" d="M0,41.09v-4.24l9.25-2.18h24.01v6.42H0ZM29.92,89.63H1.54l-.39-4.62,7.96-1.93c.08-.86.15-1.78.19-2.76.04-.98.06-2.18.06-3.6v-12.52l-.13-23.12v-14.64c0-5.48.85-10.19,2.57-14.13,1.71-3.94,4.11-6.98,7.19-9.12,3.08-2.14,6.68-3.21,10.79-3.21,3.51,0,6.42.77,8.73,2.31s3.47,3.43,3.47,5.65c0,1.2-.41,2.16-1.22,2.89-.81.73-1.82,1.09-3.02,1.09-2.14,0-4.15-.94-6.04-2.83l-5.91-5.65,3.08.77c-3.17,0-5.61,1.63-7.32,4.88-1.71,3.25-2.57,7.83-2.57,13.74v11.81l.13,6.42.13,22.09c0,3.68.04,7.41.13,11.17.08,3.77.17,6.68.26,8.73l10.53,1.67-.26,4.88Z"/>
      <path class="cls-1" d="M67.8,90.66c-4.97,0-9.44-1.11-13.42-3.34-3.98-2.23-7.15-5.41-9.5-9.57-2.36-4.15-3.53-9.05-3.53-14.7,0-6.08,1.24-11.34,3.72-15.79,2.48-4.45,5.73-7.9,9.76-10.34,4.02-2.44,8.35-3.62,12.97-3.53,6.68.09,11.9,2.31,15.67,6.68,3.77,4.37,5.65,10.53,5.65,18.49v2.31h-39.42v-5.65h30.95l-1.41,1.67v-2.7c0-4.96-1.11-8.77-3.34-11.43-2.23-2.65-5.27-3.98-9.12-3.98-2.4,0-4.71.71-6.93,2.12-2.23,1.41-4.02,3.55-5.39,6.42-1.37,2.87-2.05,6.48-2.05,10.85v1.54c0,7.02,1.73,12.5,5.2,16.44,3.47,3.94,7.94,5.91,13.42,5.91,3,0,5.69-.6,8.09-1.8,2.4-1.2,4.71-3.12,6.93-5.78l3.21,2.95c-2.4,4.45-5.44,7.77-9.12,9.95-3.68,2.18-7.79,3.27-12.33,3.27Z"/>
      <path class="cls-1" d="M125.59,90.66c-4.97,0-9.44-1.11-13.42-3.34-3.98-2.23-7.15-5.41-9.5-9.57-2.36-4.15-3.53-9.05-3.53-14.7,0-6.08,1.24-11.34,3.72-15.79,2.48-4.45,5.73-7.9,9.76-10.34,4.02-2.44,8.35-3.62,12.97-3.53,6.68.09,11.9,2.31,15.67,6.68,3.77,4.37,5.65,10.53,5.65,18.49v2.31h-39.42v-5.65h30.95l-1.41,1.67v-2.7c0-4.96-1.11-8.77-3.34-11.43-2.23-2.65-5.27-3.98-9.12-3.98-2.4,0-4.71.71-6.93,2.12-2.23,1.41-4.02,3.55-5.39,6.42-1.37,2.87-2.05,6.48-2.05,10.85v1.54c0,7.02,1.73,12.5,5.2,16.44,3.47,3.94,7.94,5.91,13.42,5.91,3,0,5.69-.6,8.09-1.8,2.4-1.2,4.71-3.12,6.93-5.78l3.21,2.95c-2.4,4.45-5.44,7.77-9.12,9.95-3.68,2.18-7.79,3.27-12.33,3.27Z"/>
      <path class="cls-1" d="M155.13,89.63l-.26-4.75,8.35-1.8c.17-.86.3-2.27.39-4.24.08-1.97.15-4.58.19-7.83.04-3.25.06-7.23.06-11.94v-16.05c0-3.25-.02-6.59-.06-10.02-.04-3.42-.09-6.66-.13-9.7-.04-3.04-.09-5.65-.13-7.83-.04-2.18-.11-3.62-.19-4.3l-9.5-1.28-.26-4.11,18.36-5.27,2.44,1.8c-.09,3.6-.17,7.19-.26,10.79-.09,3.6-.15,7.58-.19,11.94-.04,4.37-.06,9.63-.06,15.79l-.13,20.67c0,5.05.06,9.61.19,13.68.13,4.07.28,6.7.45,7.9l8.35,1.8-.26,4.75h-27.35Z"/>
      <path class="cls-1" d="M201.1,90.92c-2.31,0-4.24-.75-5.78-2.25-1.54-1.5-2.31-3.36-2.31-5.59,0-1.54.34-2.89,1.03-4.04.68-1.16,1.65-2.08,2.89-2.76,1.24-.68,2.63-1.03,4.17-1.03,2.31,0,4.24.75,5.78,2.25,1.54,1.5,2.31,3.36,2.31,5.59s-.77,4.09-2.31,5.59c-1.54,1.5-3.47,2.25-5.78,2.25Z"/>
    </g>
  </g>
</svg>